<svg id="Layer_1" data-name="Layer 1" xmlns="http://www.w3.org/2000/svg" viewBox="0 0 26.64 34.9"><defs><style>.cls-1{fill:#58595b;}</style></defs><title>General icons1</title><path class="cls-1" d="M25.63,12.66a3.27,3.27,0,0,0-2.34-1H21.86V8.33A8,8,0,0,0,19.4,2.45,8,8,0,0,0,13.52,0,8,8,0,0,0,7.64,2.45,8,8,0,0,0,5.19,8.33v3.35H3.35a3.27,3.27,0,0,0-2.34,1A3.08,3.08,0,0,0,0,15V31.62a3.08,3.08,0,0,0,1,2.3,3.27,3.27,0,0,0,2.34,1H23.29a3.27,3.27,0,0,0,2.34-1,3.08,3.08,0,0,0,1-2.3V15A3.09,3.09,0,0,0,25.63,12.66ZM8.38,8.33A4.94,4.94,0,0,1,9.9,4.71a5.08,5.08,0,0,1,7.24,0,5,5,0,0,1,1.52,3.62v3.35H8.38Zm7.27,17.29a3.2,3.2,0,0,1-4.67,0A3.2,3.2,0,0,1,11,21a3.35,3.35,0,0,1,5.69,2.34A3.21,3.21,0,0,1,15.66,25.63Z"/></svg>